<svg width="23" height="23" viewBox="0 0 23 23" fill="none" xmlns="http://www.w3.org/2000/svg">
<path fill-rule="evenodd" clip-rule="evenodd" d="M0 11.5C0 5.14873 5.14873 0 11.5 0C14.55 0 17.4751 1.2116 19.6317 3.36827C21.7884 5.52494 23 8.45001 23 11.5C23 17.8513 17.8513 23 11.5 23C5.14873 23 0 17.8513 0 11.5ZM2.87518 11.5C2.87518 16.2635 6.73672 20.125 11.5002 20.125C13.7877 20.125 15.9815 19.2163 17.599 17.5988C19.2165 15.9813 20.1252 13.7875 20.1252 11.5C20.1252 6.73654 16.2636 2.875 11.5002 2.875C6.73672 2.875 2.87518 6.73654 2.87518 11.5Z" fill="#EFF165"/>
<rect x="10.0625" y="5.75" width="2.875" height="7.1875" fill="#EFF165"/>
<rect x="10.0625" y="14.375" width="2.875" height="2.875" fill="#EFF165"/>
</svg>
