<svg width="17" height="16" viewBox="0 0 17 16" fill="none" xmlns="http://www.w3.org/2000/svg">
<path fill-rule="evenodd" clip-rule="evenodd" d="M0.105225 8C0.105225 3.58172 3.71388 0 8.16537 0C10.3031 0 12.3532 0.842855 13.8648 2.34315C15.3763 3.84344 16.2255 5.87827 16.2255 8C16.2255 12.4183 12.6169 16 8.16537 16C3.71388 16 0.105225 12.4183 0.105225 8ZM2.1203 8C2.1203 11.3137 4.82679 14 8.16541 14C9.76868 14 11.3063 13.3679 12.44 12.2426C13.5736 11.1174 14.2105 9.5913 14.2105 8C14.2105 4.68629 11.504 2 8.16541 2C4.82679 2 2.1203 4.68629 2.1203 8Z" fill="#ED8686"/>
<rect x="7.15796" y="4" width="2.01504" height="5" fill="#ED8686"/>
<rect x="7.15796" y="10" width="2.01504" height="2" fill="#ED8686"/>
</svg>
